<svg xmlns="http://www.w3.org/2000/svg" version="1.1" viewBox="204.1 155.38 352.37 400.96">
 <g fill="#fff">
  <path d="m237.48 211.79c-3.1875 2.2773-5.332 6.5156-5.332 11.387 0 4.8672 2.1484 9.1055 5.332 11.387 3.1875-2.2773 5.332-6.5156 5.332-11.387 0-4.8711-2.1445-9.1133-5.332-11.387z"/>
  <path d="m513.74 224.57c-3.7422 3.3008-6.2656 9.4492-6.2656 16.508 0 7.0625 2.5234 13.207 6.2656 16.508 3.7422-3.3008 6.2656-9.4492 6.2656-16.508 0-7.0586-2.5234-13.207-6.2656-16.508z"/>
  <path d="m437.98 187c-1.8711 1.6523-3.1367 4.7266-3.1367 8.2539s1.2656 6.6055 3.1367 8.2539c1.8711-1.6523 3.1367-4.7266 3.1367-8.2539-0.007813-3.5312-1.2656-6.6055-3.1367-8.2539z"/>
  <path d="m322.41 170.88c-2.2969 1.8984-3.8516 5.4375-3.8516 9.5s1.5469 7.6016 3.8516 9.5c2.2969-1.8984 3.8438-5.4375 3.8438-9.5 0.003906-4.0625-1.5469-7.6016-3.8438-9.5z"/>
  <path d="m375.39 258.25c-16.227 9.6602-27.168 27.66-27.168 48.324 0 20.664 10.945 38.664 27.168 48.324 16.227-9.6602 27.168-27.66 27.168-48.324 0-20.664-10.945-38.656-27.168-48.324z"/>
  <path d="m520 202.62c-20.152 0-36.484 16.332-36.484 36.484 0 13.988 7.8867 26.129 19.441 32.25-1.6992 4.9961-3.7109 9.5078-5.9922 12.375-3.3008 4.1523-10.008 8.5-16.84 12.129-8.2305-25.207-25.305-46.453-47.582-59.996 2.4258-4.2422 4.9297-8.8008 6.8906-12.781 1.668-3.3828 3.0078-7.8281 4.0898-12.465 8.6016-1.4688 15.164-8.9141 15.164-17.934 0-10.078-8.168-18.242-18.242-18.242s-18.242 8.168-18.242 18.242c0 7.5664 4.6133 14.062 11.176 16.82-0.86719 3.5273-1.875 6.7422-3.0352 9.1016-1.8711 3.8047-4.3203 8.25-6.6953 12.402-14.523-7.0859-30.832-11.074-48.051-11.074-13.449 0-26.316 2.4805-38.238 6.9219-1.0781-1.4336-2.0703-2.8945-2.8086-4.3867-2.8477-5.7383-4.9141-15.945-6.2383-24.75 7.8516-3.3828 13.355-11.176 13.355-20.27 0-12.191-9.8789-22.07-22.07-22.07-12.191 0-22.07 9.8789-22.07 22.07 0 10.273 7.0508 18.824 16.551 21.289 1.3867 9.6328 3.8086 22.105 7.7383 30.035 0.6875 1.3828 1.4883 2.7148 2.3398 4.0195-17 9.0547-31.391 22.398-41.629 38.641-9.8047-3.8984-20.992-9.2461-26.484-14.781-2.9023-2.9297-5.3711-7.1992-7.418-11.82 7-5.1016 11.566-13.336 11.566-22.656 0-15.492-12.555-28.047-28.047-28.047-15.492 0-28.047 12.555-28.047 28.047 0 14.855 11.559 26.98 26.172 27.949 2.9844 7.207 7 14.492 12.316 19.855 7.5586 7.6289 20.422 13.977 31.215 18.375-5.2539 12.824-8.168 26.836-8.168 41.531 0 2.625 0.11328 5.3789 0.35156 8.4023-1.625 2.5156-3.918 5.3477-6.5312 8.582-11.766 14.555-29.543 36.543-23.73 74.859 2.4844 16.398 13.383 24.551 23 31.742 8.5039 6.3633 16.547 12.371 18.184 23.305 1.0078 6.7188-1.5156 15.68-7.5 26.625-11.648 21.297 11.734 50.809 12.734 52.055 0.46875 0.57812 1.1562 0.88672 1.8477 0.88672 0.50781 0 1.0117-0.16016 1.4492-0.49219 1.0195-0.78906 1.2227-2.2539 0.44922-3.2852-0.66797-0.89062-16.109-22.082 0.64844-39.031 13.629-13.781 20.539-26.863 20.539-38.875 0-20.875-10.863-31.793-19.594-40.559-6.3984-6.4258-11.926-11.98-12.379-19.957-0.375-6.5547 1.8984-12.168 6.7578-16.719 6.2852 8.4258 15.672 17.348 23.332 24.633 2.7891 2.6523 5.3281 5.0625 7.3555 7.1133 7.6289 7.7148 16.836 21.402 17.68 34.594 1.3359 20.867-16.578 41.078-16.766 41.281-0.85156 0.94141-0.80078 2.3906 0.10938 3.2773 0.91406 0.89062 2.3633 0.89062 3.2812 0.019531 0.89844-0.85547 22.098-21.223 24.402-44.105 0.98047-9.7031-0.78516-20.363-5.2461-31.75 8.4336 3.2578 17.23 5.457 26.223 6.543 1.5078 2.1797 2.5664 4.3242 3.2344 6.5391 0.29688 0.98438 0.53125 2.0078 0.69141 3.0742 0.97656 6.4688-2.5664 12.836-7.043 20.891l-1.7656 3.1953c-11.68 21.359 17.125 54.945 18.355 56.359 0.83203 0.95703 2.2812 1.0898 3.2734 0.29297 0.98828-0.80078 1.1758-2.2383 0.41016-3.2578-0.21484-0.28906-21.199-28.938-4.4688-45.855 11.551-11.68 17.656-25.086 17.656-38.766 0-1.0234-0.046875-2.0078-0.11328-2.9648 6.3125-0.97656 12.512-2.4844 18.512-4.5195-5.6875 9.0703-11.641 19.945-9.8789 28.148 3.8516 17.98 30.047 47.168 31.16 48.406 0.80078 0.88672 2.1367 1.0312 3.1055 0.35547 0.98047-0.68359 1.2969-1.9805 0.75-3.0391-0.16406-0.31641-16.754-32.332-16.305-48.168 0.17188-6.1797 5.125-14.363 14.312-23.66 7.418-7.5 21.547-23.898 27.742-38.023 1.9102-2.4141 3.7266-4.9258 5.4258-7.4922 5.918 4.7539 8.7031 10.82 8.293 18.066-0.46094 7.9766-5.9805 13.527-12.379 19.957-8.7266 8.7695-19.594 19.684-19.594 40.559 0 12.012 6.9102 25.09 20.539 38.871 16.707 16.898 1.3086 38.148 0.64844 39.043-0.76562 1.0391-0.5625 2.4961 0.45312 3.2812 1.0391 0.79688 2.4844 0.60938 3.293-0.38672 1.0039-1.25 24.383-30.766 12.734-52.062-5.9922-10.949-8.5156-19.906-7.5078-26.621 1.6484-10.934 9.6797-16.941 18.191-23.305 9.6133-7.1992 20.516-15.344 23-31.742 5.8164-38.32-11.969-60.309-23.734-74.863-2.2539-2.7852-4.2227-5.2227-5.7695-7.4453 0.050781-1.332 0.089844-2.668 0.089844-4.0117 0-3.3711-0.20703-6.6953-0.50781-9.9922 9.6562-4.5664 23.008-12.07 30.453-21.445 5.0391-6.3398 8.6484-15.188 11.168-23.508 16.957-3.1406 29.816-17.98 29.816-35.852 0.011719-20.137-16.324-36.469-36.473-36.469zm-92.266-8.7031c0-5.7461 5.1133-10.406 11.422-10.406s11.422 4.6562 11.422 10.406-5.1133 10.406-11.422 10.406c-6.3047 0-11.422-4.6562-11.422-10.406zm-192.63 45.188c-8.5 0-15.391-7.5195-15.391-16.801 0-9.2773 6.8906-16.801 15.391-16.801s15.391 7.5195 15.391 16.801c0 9.2773-6.8906 16.801-15.391 16.801zm85.984-47.492c-7.8359 0-14.191-5.5391-14.191-12.379 0-6.8398 6.3555-12.379 14.191-12.379 7.8359 0 14.191 5.5391 14.191 12.379 0.007812 6.832-6.3477 12.379-14.191 12.379zm109.47 193.44c0.085938 7.6641-9.2852 21.164-11.012 23.801-0.26953 0.41016-0.54297 0.77734-0.82422 1.0938l-4.5312-23.031-4.7031 23.914c-1.7148-0.52734-3.707-1.1953-6.0586-1.8984l-4.7578-24.199-4.3242 21.969c-0.84375-0.16016-1.6953-0.32031-2.6055-0.46875-0.33203-0.050781-0.64062-0.10938-0.98438-0.16016-0.75-0.10938-1.5625-0.19922-2.3555-0.29297-0.51953-0.0625-1.0547-0.125-1.582-0.18359l-3.6758-18.684-3.582 18.195c-1.3516-0.046875-2.7188-0.089844-4.1836-0.09375-1.4648 0.003906-2.832 0.042969-4.1836 0.09375l-3.582-18.195-3.6758 18.684c-0.53125 0.0625-1.0625 0.11719-1.582 0.18359-0.78906 0.09375-1.6094 0.18359-2.3555 0.29297-0.33984 0.050781-0.64844 0.10938-0.98438 0.16016-0.91016 0.14844-1.7617 0.30469-2.6055 0.46875l-4.3242-21.969-4.7578 24.199c-2.3555 0.70703-4.3438 1.375-6.0586 1.8984l-4.7031-23.914-4.5312 23.031c-0.28125-0.32031-0.55469-0.68359-0.82422-1.0938-1.7305-2.6367-11.098-16.141-11.012-23.801-0.003906-0.050782 0-0.097657 0-0.14844 0.003906-0.20703-0.015625-0.42969 0.003906-0.62891-0.03125-2.3672 0.73828-4.2539 2.8398-5.1602 0.30469-0.12891 0.64844-0.19922 0.97266-0.30859l4.793 19.449 4.9062-19.918c1.7695 0.21875 3.6367 0.55078 5.5703 0.94531l5.0469 20.488 4.4844-18.199c2.2305 0.58203 4.4844 1.168 6.75 1.7422l4.2969 17.43 3.832-15.547c2.8594 0.58203 5.6602 1.0469 8.3242 1.2734l3.3711 13.684 3.3711-13.684c2.6602-0.22656 5.4648-0.69141 8.3242-1.2734l3.832 15.547 4.2969-17.43c2.2656-0.57422 4.5195-1.1641 6.75-1.7422l4.4844 18.199 5.0469-20.488c1.9336-0.40234 3.7969-0.73047 5.5703-0.94531l4.9062 19.918 4.793-19.449c0.32031 0.10547 0.66797 0.17578 0.97266 0.30859 2.1016 0.91016 2.875 2.793 2.8398 5.1602 0.019531 0.19922 0 0.42188 0.003907 0.62891-0.027344 0.050781-0.019532 0.097656-0.023438 0.14844zm-54.965-12.051c-41.098 0-74.418-27.922-74.418-62.367 0-34.445 33.316-62.367 74.418-62.367 41.102 0 74.418 27.922 74.418 62.367 0 34.445-33.32 62.367-74.418 62.367zm140.04-111.16c-11.484 0-20.789-10.184-20.789-22.738s9.3125-22.738 20.789-22.738c11.484 0 20.789 10.184 20.789 22.738 0 12.559-9.3086 22.738-20.789 22.738z"/>
 </g>
</svg>